<?xml version="1.0" encoding="UTF-8" standalone="no"?>
<svg
   xmlns:dc="http://purl.org/dc/elements/1.1/"
   xmlns:cc="http://creativecommons.org/ns#"
   xmlns:rdf="http://www.w3.org/1999/02/22-rdf-syntax-ns#"
   xmlns:svg="http://www.w3.org/2000/svg"
   xmlns="http://www.w3.org/2000/svg"
   xmlns:sodipodi="http://sodipodi.sourceforge.net/DTD/sodipodi-0.dtd"
   xmlns:inkscape="http://www.inkscape.org/namespaces/inkscape"
   inkscape:export-ydpi="1023.3923"
   inkscape:export-xdpi="1023.3923"
   inkscape:export-filename="/home/djalil/Desktop/@djalilhebal/softviz-philosophers/img/logo1.png"
   sodipodi:docname="logo.svg"
   inkscape:version="1.0 (6e3e5246a0, 2020-05-07)"
   id="svg8"
   version="1.1"
   viewBox="0 0 12.7 12.7"
   height="48"
   width="48">
  <defs
     id="defs2">
    <filter
       height="1.0000018"
       y="-9.0602012e-07"
       width="1.0000018"
       x="-9.0327898e-07"
       id="filter982"
       style="color-interpolation-filters:sRGB"
       inkscape:collect="always">
      <feGaussianBlur
         id="feGaussianBlur984"
         stdDeviation="3.2805637e-06"
         inkscape:collect="always" />
    </filter>
    <filter
       height="1.0000037"
       y="-1.8374797e-06"
       width="1.0000036"
       x="-1.8039826e-06"
       id="filter1026"
       style="color-interpolation-filters:sRGB"
       inkscape:collect="always">
      <feGaussianBlur
         id="feGaussianBlur1028"
         stdDeviation="9.3278739e-06"
         inkscape:collect="always" />
    </filter>
  </defs>
  <sodipodi:namedview
     inkscape:window-maximized="1"
     inkscape:window-y="0"
     inkscape:window-x="0"
     inkscape:window-height="1015"
     inkscape:window-width="1920"
     units="px"
     showgrid="false"
     inkscape:document-rotation="0"
     inkscape:current-layer="layer1"
     inkscape:document-units="mm"
     inkscape:cy="28.406508"
     inkscape:cx="27.020161"
     inkscape:zoom="11.2"
     inkscape:pageshadow="2"
     inkscape:pageopacity="1"
     borderopacity="1.0"
     bordercolor="#666666"
     pagecolor="#ffffff"
     id="base" />
  <metadata
     id="metadata5">
    <rdf:RDF>
      <cc:Work
         rdf:about="">
        <dc:format>image/svg+xml</dc:format>
        <dc:type
           rdf:resource="http://purl.org/dc/dcmitype/StillImage" />
        <dc:title></dc:title>
      </cc:Work>
    </rdf:RDF>
  </metadata>
  <g
     style="filter:url(#filter1026);opacity:0.99991707"
     id="layer1"
     inkscape:groupmode="layer"
     inkscape:label="chopsticks">
    <g
       style="fill:#1a1a1a"
       transform="matrix(0.12713712,0,0,0.12713784,0.32788096,-0.10161906)"
       id="g40">
      <g
         style="fill:#1a1a1a"
         transform="matrix(1.0876447,0,0,1.0876447,-6.7940073,-3.7377283)"
         stroke="none"
         stroke-width="1"
         fill="none"
         fill-rule="evenodd"
         id="g20">
        <g
           style="fill:#1a1a1a"
           fill="#000000"
           id="g18">
          <path
             style="fill:#1a1a1a"
             d="m 45.205992,85.000556 c 0.02793,-0.520849 0.05581,-1.05509 0.08357,-1.603202 h 8.513966 c 0.02822,0.548276 0.05654,1.082504 0.08492,1.603202 z m -0.06015,1.1 c -0.606198,10.872668 -1.218639,15.623004 -1.218639,19.146294 0,2.13129 1.339572,4.00449 5.617647,5.32822 4.278075,-1.32373 5.617647,-3.19693 5.617647,-5.32822 0,-3.7475 -0.607477,-8.460366 -1.212917,-19.146294 z m 0.198336,-3.803202 c 0.02542,-0.52222 0.0507,-1.056495 0.0758,-1.603202 h 8.251033 c 0.02551,0.546869 0.0512,1.081135 0.07702,1.603202 z m 0.125304,-2.703202 c 0.02308,-0.523354 0.04597,-1.057653 0.06865,-1.603202 h 8.012881 c 0.02303,0.545704 0.04628,1.079997 0.06972,1.603202 z m 0.113438,-2.703201 c 0.02091,-0.524304 0.04161,-1.058622 0.06206,-1.603202 h 7.797548 c 0.02076,0.544726 0.04177,1.079039 0.063,1.603202 z m 0.102513,-2.703202 c 0.346819,-9.631178 0.613703,-22.364775 0.640179,-39.470517 -0.0576,37.215293 0,-14.028361 0.140387,-27.8334619 0.09405,-9.2485004 1.619379,-18.4483171 3.078851,-18.4065691 1.459473,0.04175 2.978934,9.1658028 3.07,18.4211923 0.136487,13.8717767 0.136998,20.5521837 0.136487,27.8188387 0.02878,17.167142 0.299623,29.879233 0.650133,39.470517 z"
             transform="rotate(45,49.544846,49.526064)"
             id="path14" />
          <path
             style="fill:#1a1a1a"
             d="m 51.040985,55.088578 c 5.514119,5.68045 10.070733,10.48569 13.868803,14.570033 l 5.467538,-5.467537 C 66.288245,60.39271 61.466844,55.824154 55.74771,50.274141 c -1.613186,1.645054 -3.181602,3.249481 -4.706731,4.814443 z M 44.3528,48.249241 c -2.218352,-2.252891 -4.56608,-4.622732 -7.052003,-7.116362 3.265785,3.27591 5.566478,5.584212 7.072984,7.095896 -0.007,0.0068 -0.014,0.01365 -0.02099,0.02047 z m 0.02157,-0.02104 C 38.569924,42.398078 23.460369,27.211887 17.718836,21.352381 11.245662,14.746201 5.8189798,7.1623772 6.8805031,6.1598945 7.9420265,5.1574118 15.468129,10.534672 22.077071,17.014827 c 9.905338,9.712316 14.629461,14.435716 19.7674,19.574378 2.514659,2.506242 4.901905,4.87043 7.169068,7.101924 -1.583252,1.552955 -3.129313,3.064888 -4.639171,4.537074 z m 4.695303,-4.481825 c 2.5e-5,2.6e-5 5.1e-5,5.1e-5 7.6e-5,7.6e-5 -0.793653,0.790678 -0.731444,0.72845 -7.6e-5,-7.6e-5 z m 16.589084,26.718901 c 0.372148,0.401442 0.736747,0.795687 1.094001,1.182893 l 5.615234,-5.615234 c -0.38733,-0.356928 -0.781796,-0.721298 -1.183568,-1.093325 z m 1.839874,1.992654 c 0.368898,0.401176 0.729655,0.794521 1.082516,1.180223 l 5.778087,-5.778088 c -0.385851,-0.3525 -0.779446,-0.712997 -1.180987,-1.08175 z m 1.825039,1.993334 c 0.368001,0.403729 0.727045,0.79875 1.077437,1.185301 l 5.957964,-5.957964 C 75.972342,69.328604 75.577039,68.969855 75.172905,68.60203 Z m 1.816322,2.00205 c 0.367123,0.406622 0.724305,0.803459 1.071935,1.190814 l 6.156301,-6.156302 C 77.980662,71.14062 77.583512,70.783769 77.176449,70.416858 Z m 1.806885,2.011499 c 7.152271,8.00384 10.055481,11.761488 12.529961,14.235968 1.507048,1.507048 3.778822,1.884381 7.739896,-0.204657 2.089038,-3.961074 1.711704,-6.232848 0.204657,-7.739895 C 90.789756,82.124595 87.06122,79.243369 79.189609,72.222082 Z"
             id="path16" />
        </g>
      </g>
    </g>
    <g
       style="filter:url(#filter982)"
       inkscape:label="stone"
       id="layer2"
       inkscape:groupmode="layer">
      <g
         style="fill:#ff0000"
         transform="matrix(0.26458333,0,0,0.26458333,6.5239148,-4.3323204)"
         id="g65">
        <g
           style="fill:#ff0000"
           transform="matrix(0.59229196,0,0,0.59229196,-20.508211,18.443318)"
           data-name="Layer 1"
           id="g47">
          <path
             style="fill:#ff0000"
             d="M 57.94922,43.09766 41.78992,32.32477 36.01172,19.80567 36.92035,2.54719 c 9.19391,4.9771 20.21722,24.13067 21.02887,40.55047 z M 34.02112,19.56482 23.41486,30.17108 4.82141,39.0636 34.846,3.89191 Z m -9.2096,12.03772 9.88135,-9.88135 5.33252,11.55225 L 42.8783,58 H 10.67072 Z m 17.42889,3.42627 15.153,10.102 -12.62741,11.786 z M 2.32813,42.47357 21.67536,33.22057 9.05762,56.77362 Z"
             id="path45" />
        </g>
      </g>
    </g>
  </g>
</svg>
