<svg xmlns="http://www.w3.org/2000/svg" xmlns:xlink="http://www.w3.org/1999/xlink" viewBox="0 0 100 125" version="1.1" x="0px" y="0px"><title>chopsticks fat 4</title><desc>Created with Sketch.</desc><g stroke="none" stroke-width="1" fill="none" fill-rule="evenodd"><g fill="#000000"><path d="M45.2059924,85.0005557 C45.2339246,84.4797065 45.2617999,83.9454665 45.2895574,83.397354 L53.8035233,83.397354 C53.8317388,83.9456296 53.8600669,84.4798576 53.8884448,85.0005557 L45.2059924,85.0005557 Z M45.1458376,86.1005557 C44.5396402,96.9732235 43.9271993,101.72356 43.9271993,105.246851 C43.9271993,107.378138 45.2667714,109.25134 49.5448463,110.575069 C53.8229213,109.25134 55.1624933,107.378138 55.1624934,105.246851 C55.1624934,101.49935 54.5550161,96.7864837 53.949576,86.1005557 L45.1458376,86.1005557 Z M45.3441741,82.297354 C45.3695914,81.7751336 45.3948747,81.2408587 45.4199762,80.6941522 L53.671009,80.6941522 C53.6965174,81.2410214 53.7222056,81.7752873 53.7480246,82.297354 L45.3441741,82.297354 Z M45.4694775,79.5941522 C45.4925566,79.0707985 45.5154516,78.5364987 45.5381244,77.9909505 L53.5510053,77.9909505 C53.5740357,78.5366545 53.5972885,79.0709473 53.6207243,79.5941522 L45.4694775,79.5941522 Z M45.5829156,76.8909505 C45.6038291,76.3666469 45.6245261,75.8323287 45.6449753,75.2877487 L53.4425235,75.2877487 C53.4632856,75.832475 53.4842966,76.3667877 53.5055245,76.8909505 L45.5829156,76.8909505 Z M45.6854288,74.1877487 C46.032248,64.5565707 46.299132,51.8229735 46.3256081,34.7172317 C46.2680066,71.9325251 46.3256081,20.6888707 46.4659946,6.88377006 C46.5600442,-2.3647303 48.0853737,-11.5645473 49.5448463,-11.5227992 C51.004319,-11.4810512 52.5237804,-2.35699623 52.614846,6.89839334 C52.7513332,20.7701695 52.7518442,27.4505769 52.7513332,34.7172317 C52.7801128,51.8843739 53.0509563,64.5964655 53.4014657,74.1877487 L45.6854288,74.1877487 Z" transform="translate(49.544846, 49.526064) rotate(45.000000) translate(-49.544846, -49.526064) "/><path d="M51.0409852,55.0885777 C56.5551037,60.7690282 61.1117177,65.5742684 64.9097883,69.6586113 L70.3773259,64.1910736 C66.2882448,60.3927104 61.4668444,55.8241537 55.7477099,50.2741415 C54.134524,51.9191949 52.5661081,53.523622 51.0409787,55.0885844 Z M44.3528002,48.2492414 C42.1344477,45.9963497 39.7867201,43.6265093 37.3007973,41.1328792 C40.5665821,44.4087891 42.8672754,46.7170906 44.3737812,48.2287755 C44.3667833,48.2355988 44.3597861,48.2424212 44.3527898,48.2492428 Z M44.3743703,48.2282011 C38.5699245,42.3980777 23.460369,27.2118873 17.7188361,21.3523815 C11.2456619,14.746201 5.81897978,7.16237722 6.88050312,6.15989453 C7.94202646,5.15741185 15.468129,10.5346715 22.0770709,17.0148271 C31.9824089,26.7271431 36.7065316,31.4505432 41.8444711,36.5892053 C44.35913,39.095447 46.7463763,41.4596347 49.0135393,43.6911292 C47.4302873,45.2440841 45.8842264,46.7560172 44.3743682,48.2282031 Z M49.0696726,43.7463764 C49.0696982,43.7464016 49.0697238,43.7464268 49.0697495,43.746452 C48.2760957,44.53713 48.3383052,44.4749018 49.0696726,43.7463764 Z M65.6587574,70.4652771 C66.030905,70.8667193 66.3955043,71.2609643 66.7527582,71.6481696 L72.3679921,66.0329357 C71.9806621,65.6760084 71.5861955,65.3116385 71.1844237,64.9396107 L65.6587574,70.4652771 Z M67.4986313,72.4579314 C67.8675293,72.8591075 68.2282865,73.2524519 68.5811465,73.6381536 L74.3592338,67.8600663 C73.973383,67.5075658 73.5797884,67.1470688 73.1782469,66.7783158 L67.4986313,72.4579314 Z M69.3236697,74.4512653 C69.6916707,74.8549936 70.0507148,75.2500151 70.4011066,75.6365658 L76.3590706,69.6786018 C75.9723422,69.3286044 75.5770386,68.9698554 75.1729053,68.6020297 L69.3236697,74.4512653 Z M71.1399924,76.4533149 C71.507115,76.8599368 71.8642966,77.2567741 72.2119266,77.6441289 L78.3682283,71.4878271 C77.9806625,71.1406198 77.5835117,70.7837692 77.1764492,70.4168581 L71.1399924,76.4533149 Z M72.9468767,78.4648137 C80.0991478,86.4686541 83.0023575,90.2263016 85.4768381,92.7007822 C86.9838858,94.2078299 89.25566,94.585163 93.2167337,92.4961251 C95.3057716,88.5350514 94.9284384,86.2632773 93.4213908,84.7562295 C90.7897563,82.1245951 87.0612201,79.2433695 79.1896086,72.2220818 L72.9468767,78.4648137 Z"/></g></g><text x="0" y="115" fill="#000000" font-size="5px" font-weight="bold" font-family="'Helvetica Neue', Helvetica, Arial-Unicode, Arial, Sans-serif">Created by Peter Emil van den Berg</text><text x="0" y="120" fill="#000000" font-size="5px" font-weight="bold" font-family="'Helvetica Neue', Helvetica, Arial-Unicode, Arial, Sans-serif">from the Noun Project</text></svg>